<svg width="600" height="600" viewBox="0 0 600 600" fill="none" xmlns="http://www.w3.org/2000/svg">
  <rect width="600" height="600" rx="16" fill="#1F1F1F"/>
  <path d="M300 185C339.765 185 372 217.235 372 257C372 296.765 339.765 329 300 329C260.235 329 228 296.765 228 257C228 217.235 260.235 185 300 185Z" fill="#3B82F6"/>
  <path fill-rule="evenodd" clip-rule="evenodd" d="M144.5 165C144.5 153.954 153.454 145 164.5 145H435.5C446.546 145 455.5 153.954 455.5 165V435C455.5 446.046 446.546 455 435.5 455H164.5C153.454 455 144.5 446.046 144.5 435V165ZM164.5 175C169.746 175 174 179.254 174 184.5V414.5C174 419.746 169.746 424 164.5 424C159.254 424 155 419.746 155 414.5V184.5C155 179.254 159.254 175 164.5 175ZM194 184.5C194 179.254 198.254 175 203.5 175H396.5C401.746 175 406 179.254 406 184.5C406 189.746 401.746 194 396.5 194H203.5C198.254 194 194 189.746 194 184.5ZM194 414.5C194 409.254 198.254 405 203.5 405H396.5C401.746 405 406 409.254 406 414.5C406 419.746 401.746 424 396.5 424H203.5C198.254 424 194 419.746 194 414.5ZM426 184.5C426 179.254 430.254 175 435.5 175C440.746 175 445 179.254 445 184.5V414.5C445 419.746 440.746 424 435.5 424C430.254 424 426 419.746 426 414.5V184.5Z" fill="#4B5563"/>
  <path d="M245.695 375.305C243.268 375.305 241.187 376.255 239.453 378.155C237.72 380.055 236.853 382.318 236.853 384.943C236.853 387.632 237.737 389.96 239.505 391.927C241.273 393.877 243.372 394.852 245.8 394.852C248.262 394.852 250.378 393.877 252.147 391.927C253.932 389.977 254.825 387.632 254.825 384.892C254.825 382.267 253.923 380.012 252.121 378.129C250.335 376.246 248.195 375.305 245.695 375.305Z" fill="#9CA3AF"/>
  <path d="M270.7 375.305C268.273 375.305 266.192 376.255 264.458 378.155C262.725 380.055 261.858 382.318 261.858 384.943C261.858 387.632 262.742 389.96 264.51 391.927C266.278 393.877 268.377 394.852 270.805 394.852C273.267 394.852 275.383 393.877 277.152 391.927C278.938 389.977 279.83 387.632 279.83 384.892C279.83 382.267 278.928 380.012 277.126 378.129C275.34 376.246 273.2 375.305 270.7 375.305Z" fill="#9CA3AF"/>
  <path d="M295.701 375.305C293.273 375.305 291.193 376.255 289.459 378.155C287.726 380.055 286.859 382.318 286.859 384.943C286.859 387.632 287.743 389.96 289.511 391.927C291.279 393.877 293.378 394.852 295.806 394.852C298.268 394.852 300.384 393.877 302.153 391.927C303.939 389.977 304.831 387.632 304.831 384.892C304.831 382.267 303.929 380.012 302.127 378.129C300.341 376.246 298.201 375.305 295.701 375.305Z" fill="#9CA3AF"/>
  <path d="M320.701 375.305C318.273 375.305 316.193 376.255 314.459 378.155C312.726 380.055 311.859 382.318 311.859 384.943C311.859 387.632 312.743 389.96 314.511 391.927C316.279 393.877 318.378 394.852 320.806 394.852C323.268 394.852 325.384 393.877 327.153 391.927C328.939 389.977 329.831 387.632 329.831 384.892C329.831 382.267 328.929 380.012 327.127 378.129C325.341 376.246 323.201 375.305 320.701 375.305Z" fill="#9CA3AF"/>
  <path d="M345.699 375.305C343.271 375.305 341.191 376.255 339.457 378.155C337.724 380.055 336.857 382.318 336.857 384.943C336.857 387.632 337.741 389.96 339.509 391.927C341.277 393.877 343.376 394.852 345.804 394.852C348.266 394.852 350.382 393.877 352.151 391.927C353.937 389.977 354.829 387.632 354.829 384.892C354.829 382.267 353.927 380.012 352.125 378.129C350.339 376.246 348.199 375.305 345.699 375.305Z" fill="#9CA3AF"/>
  <!-- Instagram-style square outline -->
  <rect x="170" y="220" width="260" height="260" rx="16" stroke="#6B7280" stroke-width="2" fill="none"/>
  <!-- Instagram-style camera icon -->
  <circle cx="300" cy="350" r="28" stroke="#6B7280" stroke-width="2" fill="none"/>
  <circle cx="338" cy="265" r="8" fill="#6B7280"/>
</svg> 